<?xml version="1.0" encoding="UTF-8"?>
<svg width="752pt" height="752pt" version="1.1" viewBox="0 0 752 752" xmlns="http://www.w3.org/2000/svg">
 <g fill="#fff">
  <path d="m424.34 226.2c-34.793 0-63.09 28.297-63.09 63.09 0 8.1836 6.6172 14.801 14.801 14.801s14.801-6.6172 14.801-14.801c0-18.469 15.02-33.492 33.492-33.492 18.469 0 33.492 15.02 33.492 33.492 0 18.453-15.02 33.477-33.492 33.477-8.1836 0-14.801 6.6172-14.801 14.801 0 0.29688 0.14844 0.53125 0.16406 0.8125-0.015625 0.29688-0.16406 0.53125-0.16406 0.82813v30.797c0 8.1836 6.6172 14.801 14.801 14.801s14.801-6.6172 14.801-14.801v-19.566c27.629-6.7031 48.289-31.477 48.289-61.137-0.019532-34.805-28.316-63.102-63.094-63.102z"/>
  <path d="m424.34 390.39c-8.1836 0-14.801 6.6172-14.801 14.801v9.1602c0 8.1836 6.6172 14.801 14.801 14.801 8.1836 0 14.801-6.6172 14.801-14.801v-9.1602c0-8.1875-6.6328-14.801-14.801-14.801z"/>
  <path d="m424.34 168.81c-87.598 0-158.87 71.262-158.87 158.86 0 39.16 14.312 74.973 37.887 102.69l-38.125 37.992c-16.441-7.4141-37.16-4.7344-50.273 8.3906l-33.121 33.121c-8.3906 8.3906-13.023 19.547-13.023 31.402 0 11.867 4.6328 23.027 12.992 31.391 8.375 8.375 19.535 13.008 31.406 13.008 11.855 0 23.012-4.6328 31.391-13.008l33.121-33.121c8.375-8.375 13.008-19.535 13.008-31.391 0-6.7031-1.6289-13.129-4.4258-19.004l38.211-38.035c27.305 22.125 62.008 35.445 99.809 35.445 87.613-0.011719 158.87-71.285 158.87-158.88 0-87.598-71.258-158.86-158.86-158.86zm-167.54 349.8-33.121 33.121c-5.6367 5.5781-15.332 5.6094-20.926-0.015625-2.7969-2.7812-4.3359-6.4805-4.3359-10.449 0-3.9531 1.5391-7.668 4.3359-10.465l33.121-33.121c2.7969-2.7812 6.5117-4.3359 10.465-4.3359 3.9648 0 7.668 1.5391 10.465 4.3516 2.7969 2.7812 4.3359 6.4805 4.3359 10.449-0.003906 3.9375-1.543 7.6523-4.3398 10.465zm167.54-61.672c-71.273 0-129.26-57.984-129.26-129.26 0-71.273 57.969-129.27 129.26-129.27 71.289 0 129.26 57.984 129.26 129.26 0 71.273-57.984 129.27-129.26 129.27z"/>
 </g>
</svg>
